<svg width="185" height="23" viewBox="0 0 185 23" fill="none" xmlns="http://www.w3.org/2000/svg">
<path d="M81.0018 13.2098L77.8099 16.4016L81.0018 19.5935L84.1937 16.4016L81.0018 13.2098Z" fill="#FF0074"/>
<path d="M117.697 0.437256V13.2109H117.027L113.405 6.82747L109.777 0.437256H97.5022V6.82747V19.5943H104.121V6.82747H104.813L108.434 13.2109L112.057 19.5943H124.317V13.2109V0.437256H117.697Z" fill="white"/>
<path d="M29.6515 0.437256V13.2109H28.9808L25.3573 6.82747L21.7294 0.437256H9.45633V6.82747V19.5943H16.0755V6.82747H16.7644L20.3878 13.2109L24.009 19.5943H36.2707V13.2109V0.437256H29.6515Z" fill="white"/>
<path d="M147.664 0.439697L140.793 12.5426L133.943 0.439697H125.359L132.579 13.2088H140.415L136.791 19.5922H145.382L156.25 0.439697H147.664Z" fill="white"/>
<path d="M6.62145 0.439697H0V19.5945H6.62145V0.439697Z" fill="white"/>
<path d="M87.8759 19.5922H96.4621L85.594 0.439697H77.0033L80.629 6.82311H72.7748L65.5461 19.5922H74.1322L80.9984 7.47572L87.8759 19.5922Z" fill="white"/>
<path d="M66.3505 14.1106V14.165C66.4049 15.6538 65.9993 16.8094 65.1246 17.6841C62.8154 20 57.4199 20 52.1876 20C47.3268 20 44.347 19.6896 42.2169 18.9554C39.6494 18.0739 38.3396 16.5058 38.2059 14.165V13.2132H46.681L46.783 14.1491C47.1025 16.4355 50.3022 16.4151 51.8386 16.4151H52.0652C54.2112 16.4151 56.4342 16.4151 57.3089 15.4883C57.4551 15.332 57.5651 15.1454 57.6309 14.9417C57.6967 14.738 57.7167 14.5223 57.6896 14.31C57.5649 13.177 55.1629 12.8507 51.5191 12.3657C48.1562 11.9125 44.041 11.3823 41.2968 10.0091C39.2823 9.10265 37.8705 7.83367 37.7844 5.97553V5.90528V5.8509C37.73 4.35985 38.1357 3.20643 39.0081 2.33174C41.3195 -4.97043e-06 46.7263 0 51.9474 0C56.8081 0 59.788 0.312711 61.9181 1.04691C64.4855 1.92839 65.7953 3.49649 65.929 5.8373V6.7981H57.4562L57.3542 5.86222C57.0347 3.5758 53.835 3.59619 52.2986 3.59619H52.072C49.926 3.59619 47.703 3.59619 46.8283 4.52526C46.6819 4.68148 46.5719 4.86813 46.5061 5.07184C46.4403 5.27554 46.4203 5.49127 46.4476 5.7036C46.5722 6.83661 48.9743 7.16292 52.6181 7.64559C55.981 8.0988 60.0961 8.62905 62.8404 10.0023C64.8549 10.9087 66.2667 12.1799 66.3528 14.0381L66.3505 14.1106Z" fill="white"/>
<path d="M159.75 20H157.057V11.2727H159.869C160.716 11.2727 161.44 11.4474 162.043 11.7969C162.645 12.1435 163.107 12.642 163.428 13.2926C163.749 13.9403 163.909 14.7159 163.909 15.6193C163.909 16.5284 163.747 17.3111 163.423 17.9673C163.099 18.6207 162.628 19.1236 162.009 19.4759C161.389 19.8253 160.636 20 159.75 20ZM158.114 19.0625H159.682C160.403 19.0625 161.001 18.9233 161.476 18.6449C161.95 18.3665 162.304 17.9702 162.537 17.456C162.77 16.9418 162.886 16.3295 162.886 15.6193C162.886 14.9148 162.771 14.3082 162.541 13.7997C162.311 13.2884 161.967 12.8963 161.51 12.6236C161.053 12.348 160.483 12.2102 159.801 12.2102H158.114V19.0625ZM168.205 20.1364C167.614 20.1364 167.095 19.9957 166.649 19.7145C166.206 19.4332 165.859 19.0398 165.609 18.5341C165.362 18.0284 165.239 17.4375 165.239 16.7614C165.239 16.0795 165.362 15.4844 165.609 14.9759C165.859 14.4673 166.206 14.0724 166.649 13.7912C167.095 13.5099 167.614 13.3693 168.205 13.3693C168.795 13.3693 169.313 13.5099 169.756 13.7912C170.202 14.0724 170.548 14.4673 170.795 14.9759C171.045 15.4844 171.17 16.0795 171.17 16.7614C171.17 17.4375 171.045 18.0284 170.795 18.5341C170.548 19.0398 170.202 19.4332 169.756 19.7145C169.313 19.9957 168.795 20.1364 168.205 20.1364ZM168.205 19.233C168.653 19.233 169.023 19.1179 169.312 18.8878C169.602 18.6577 169.817 18.3551 169.956 17.9801C170.095 17.6051 170.165 17.1989 170.165 16.7614C170.165 16.3239 170.095 15.9162 169.956 15.5384C169.817 15.1605 169.602 14.8551 169.312 14.6222C169.023 14.3892 168.653 14.2727 168.205 14.2727C167.756 14.2727 167.386 14.3892 167.097 14.6222C166.807 14.8551 166.592 15.1605 166.453 15.5384C166.314 15.9162 166.244 16.3239 166.244 16.7614C166.244 17.1989 166.314 17.6051 166.453 17.9801C166.592 18.3551 166.807 18.6577 167.097 18.8878C167.386 19.1179 167.756 19.233 168.205 19.233ZM175.365 20.1364C174.751 20.1364 174.223 19.9915 173.779 19.7017C173.336 19.4119 172.995 19.0128 172.757 18.5043C172.518 17.9957 172.399 17.4148 172.399 16.7614C172.399 16.0966 172.521 15.5099 172.765 15.0014C173.012 14.4901 173.356 14.0909 173.797 13.804C174.24 13.5142 174.757 13.3693 175.348 13.3693C175.808 13.3693 176.223 13.4545 176.592 13.625C176.961 13.7955 177.264 14.0341 177.5 14.3409C177.735 14.6477 177.882 15.0057 177.939 15.4148H176.933C176.856 15.1165 176.686 14.8523 176.422 14.6222C176.16 14.3892 175.808 14.2727 175.365 14.2727C174.973 14.2727 174.629 14.375 174.333 14.5795C174.041 14.7812 173.812 15.0668 173.647 15.4361C173.485 15.8026 173.404 16.233 173.404 16.7273C173.404 17.233 173.484 17.6733 173.643 18.0483C173.805 18.4233 174.032 18.7145 174.325 18.9219C174.62 19.1293 174.967 19.233 175.365 19.233C175.626 19.233 175.863 19.1875 176.076 19.0966C176.289 19.0057 176.47 18.875 176.618 18.7045C176.765 18.5341 176.87 18.3295 176.933 18.0909H177.939C177.882 18.4773 177.741 18.8253 177.517 19.1349C177.295 19.4418 177.001 19.6861 176.635 19.8679C176.271 20.0469 175.848 20.1364 175.365 20.1364ZM184.045 14.9205L183.142 15.1761C183.085 15.0256 183.001 14.8793 182.89 14.7372C182.782 14.5923 182.635 14.473 182.447 14.3793C182.26 14.2855 182.02 14.2386 181.727 14.2386C181.326 14.2386 180.993 14.331 180.725 14.5156C180.461 14.6974 180.329 14.929 180.329 15.2102C180.329 15.4602 180.42 15.6577 180.602 15.8026C180.784 15.9474 181.068 16.0682 181.454 16.1648L182.426 16.4034C183.011 16.5455 183.447 16.7628 183.734 17.0554C184.021 17.3452 184.164 17.7187 184.164 18.1761C184.164 18.5511 184.056 18.8864 183.841 19.1818C183.627 19.4773 183.329 19.7102 182.946 19.8807C182.562 20.0511 182.116 20.1364 181.608 20.1364C180.94 20.1364 180.387 19.9915 179.95 19.7017C179.512 19.4119 179.235 18.9886 179.119 18.4318L180.074 18.1932C180.164 18.5455 180.336 18.8097 180.589 18.9858C180.845 19.1619 181.179 19.25 181.591 19.25C182.059 19.25 182.431 19.1506 182.707 18.9517C182.985 18.75 183.125 18.5085 183.125 18.2273C183.125 18 183.045 17.8097 182.886 17.6562C182.727 17.5 182.483 17.3835 182.153 17.3068L181.062 17.0511C180.463 16.9091 180.022 16.6889 179.741 16.3906C179.463 16.0895 179.324 15.7131 179.324 15.2614C179.324 14.892 179.427 14.5653 179.635 14.2812C179.845 13.9972 180.13 13.7741 180.491 13.6122C180.855 13.4503 181.267 13.3693 181.727 13.3693C182.375 13.3693 182.883 13.5114 183.252 13.7955C183.625 14.0795 183.889 14.4545 184.045 14.9205Z" fill="#818182"/>
</svg>
