<svg width="187" height="23" viewBox="0 0 187 23" fill="none" xmlns="http://www.w3.org/2000/svg">
<path d="M81.0018 13.2098L77.8099 16.4016L81.0018 19.5935L84.1937 16.4016L81.0018 13.2098Z" fill="#FF0074"/>
<path d="M117.697 0.437256V13.2109H117.027L113.405 6.82747L109.777 0.437256H97.5022V6.82747V19.5943H104.121V6.82747H104.813L108.434 13.2109L112.057 19.5943H124.317V13.2109V0.437256H117.697Z" fill="black"/>
<path d="M29.6515 0.437256V13.2109H28.9808L25.3573 6.82747L21.7294 0.437256H9.45633V6.82747V19.5943H16.0755V6.82747H16.7644L20.3878 13.2109L24.009 19.5943H36.2707V13.2109V0.437256H29.6515Z" fill="black"/>
<path d="M147.664 0.439697L140.793 12.5426L133.943 0.439697H125.359L132.579 13.2088H140.415L136.791 19.5922H145.382L156.25 0.439697H147.664Z" fill="black"/>
<path d="M6.62145 0.439697H0V19.5945H6.62145V0.439697Z" fill="black"/>
<path d="M87.8759 19.5922H96.4621L85.594 0.439697H77.0033L80.629 6.82311H72.7748L65.5461 19.5922H74.1322L80.9984 7.47572L87.8759 19.5922Z" fill="black"/>
<path d="M66.3505 14.1106V14.165C66.4049 15.6538 65.9993 16.8094 65.1246 17.6841C62.8154 20 57.4199 20 52.1876 20C47.3268 20 44.347 19.6896 42.2169 18.9554C39.6494 18.0739 38.3396 16.5058 38.2059 14.165V13.2132H46.681L46.783 14.1491C47.1025 16.4355 50.3022 16.4151 51.8386 16.4151H52.0652C54.2112 16.4151 56.4342 16.4151 57.3089 15.4883C57.4551 15.332 57.5651 15.1454 57.6309 14.9417C57.6967 14.738 57.7167 14.5223 57.6896 14.31C57.5649 13.177 55.1629 12.8507 51.5191 12.3657C48.1562 11.9125 44.041 11.3823 41.2968 10.0091C39.2823 9.10265 37.8705 7.83367 37.7844 5.97553V5.90528V5.8509C37.73 4.35985 38.1357 3.20643 39.0081 2.33174C41.3195 -4.97043e-06 46.7263 0 51.9474 0C56.8081 0 59.788 0.312711 61.9181 1.04691C64.4855 1.92839 65.7953 3.49649 65.929 5.8373V6.7981H57.4562L57.3542 5.86222C57.0347 3.5758 53.835 3.59619 52.2986 3.59619H52.072C49.926 3.59619 47.703 3.59619 46.8283 4.52526C46.6819 4.68148 46.5719 4.86813 46.5061 5.07184C46.4403 5.27554 46.4203 5.49127 46.4476 5.7036C46.5722 6.83661 48.9743 7.16292 52.6181 7.64559C55.981 8.0988 60.0961 8.62905 62.8404 10.0023C64.8549 10.9087 66.2667 12.1799 66.3528 14.0381L66.3505 14.1106Z" fill="black"/>
<path d="M161.75 20H159.057V11.2727H161.869C162.716 11.2727 163.44 11.4474 164.043 11.7969C164.645 12.1435 165.107 12.642 165.428 13.2926C165.749 13.9403 165.909 14.7159 165.909 15.6193C165.909 16.5284 165.747 17.3111 165.423 17.9673C165.099 18.6207 164.628 19.1236 164.009 19.4759C163.389 19.8253 162.636 20 161.75 20ZM160.114 19.0625H161.682C162.403 19.0625 163.001 18.9233 163.476 18.6449C163.95 18.3665 164.304 17.9702 164.537 17.456C164.77 16.9418 164.886 16.3295 164.886 15.6193C164.886 14.9148 164.771 14.3082 164.541 13.7997C164.311 13.2884 163.967 12.8963 163.51 12.6236C163.053 12.348 162.483 12.2102 161.801 12.2102H160.114V19.0625ZM170.205 20.1364C169.614 20.1364 169.095 19.9957 168.649 19.7145C168.206 19.4332 167.859 19.0398 167.609 18.5341C167.362 18.0284 167.239 17.4375 167.239 16.7614C167.239 16.0795 167.362 15.4844 167.609 14.9759C167.859 14.4673 168.206 14.0724 168.649 13.7912C169.095 13.5099 169.614 13.3693 170.205 13.3693C170.795 13.3693 171.313 13.5099 171.756 13.7912C172.202 14.0724 172.548 14.4673 172.795 14.9759C173.045 15.4844 173.17 16.0795 173.17 16.7614C173.17 17.4375 173.045 18.0284 172.795 18.5341C172.548 19.0398 172.202 19.4332 171.756 19.7145C171.313 19.9957 170.795 20.1364 170.205 20.1364ZM170.205 19.233C170.653 19.233 171.023 19.1179 171.312 18.8878C171.602 18.6577 171.817 18.3551 171.956 17.9801C172.095 17.6051 172.165 17.1989 172.165 16.7614C172.165 16.3239 172.095 15.9162 171.956 15.5384C171.817 15.1605 171.602 14.8551 171.312 14.6222C171.023 14.3892 170.653 14.2727 170.205 14.2727C169.756 14.2727 169.386 14.3892 169.097 14.6222C168.807 14.8551 168.592 15.1605 168.453 15.5384C168.314 15.9162 168.244 16.3239 168.244 16.7614C168.244 17.1989 168.314 17.6051 168.453 17.9801C168.592 18.3551 168.807 18.6577 169.097 18.8878C169.386 19.1179 169.756 19.233 170.205 19.233ZM177.365 20.1364C176.751 20.1364 176.223 19.9915 175.779 19.7017C175.336 19.4119 174.995 19.0128 174.757 18.5043C174.518 17.9957 174.399 17.4148 174.399 16.7614C174.399 16.0966 174.521 15.5099 174.765 15.0014C175.012 14.4901 175.356 14.0909 175.797 13.804C176.24 13.5142 176.757 13.3693 177.348 13.3693C177.808 13.3693 178.223 13.4545 178.592 13.625C178.961 13.7955 179.264 14.0341 179.5 14.3409C179.735 14.6477 179.882 15.0057 179.939 15.4148H178.933C178.856 15.1165 178.686 14.8523 178.422 14.6222C178.16 14.3892 177.808 14.2727 177.365 14.2727C176.973 14.2727 176.629 14.375 176.333 14.5795C176.041 14.7812 175.812 15.0668 175.647 15.4361C175.485 15.8026 175.404 16.233 175.404 16.7273C175.404 17.233 175.484 17.6733 175.643 18.0483C175.805 18.4233 176.032 18.7145 176.325 18.9219C176.62 19.1293 176.967 19.233 177.365 19.233C177.626 19.233 177.863 19.1875 178.076 19.0966C178.289 19.0057 178.47 18.875 178.618 18.7045C178.765 18.5341 178.87 18.3295 178.933 18.0909H179.939C179.882 18.4773 179.741 18.8253 179.517 19.1349C179.295 19.4418 179.001 19.6861 178.635 19.8679C178.271 20.0469 177.848 20.1364 177.365 20.1364ZM186.045 14.9205L185.142 15.1761C185.085 15.0256 185.001 14.8793 184.89 14.7372C184.782 14.5923 184.635 14.473 184.447 14.3793C184.26 14.2855 184.02 14.2386 183.727 14.2386C183.326 14.2386 182.993 14.331 182.725 14.5156C182.461 14.6974 182.329 14.929 182.329 15.2102C182.329 15.4602 182.42 15.6577 182.602 15.8026C182.784 15.9474 183.068 16.0682 183.454 16.1648L184.426 16.4034C185.011 16.5455 185.447 16.7628 185.734 17.0554C186.021 17.3452 186.164 17.7187 186.164 18.1761C186.164 18.5511 186.056 18.8864 185.841 19.1818C185.627 19.4773 185.329 19.7102 184.946 19.8807C184.562 20.0511 184.116 20.1364 183.608 20.1364C182.94 20.1364 182.387 19.9915 181.95 19.7017C181.512 19.4119 181.235 18.9886 181.119 18.4318L182.074 18.1932C182.164 18.5455 182.336 18.8097 182.589 18.9858C182.845 19.1619 183.179 19.25 183.591 19.25C184.059 19.25 184.431 19.1506 184.707 18.9517C184.985 18.75 185.125 18.5085 185.125 18.2273C185.125 18 185.045 17.8097 184.886 17.6562C184.727 17.5 184.483 17.3835 184.153 17.3068L183.062 17.0511C182.463 16.9091 182.022 16.6889 181.741 16.3906C181.463 16.0895 181.324 15.7131 181.324 15.2614C181.324 14.892 181.427 14.5653 181.635 14.2812C181.845 13.9972 182.13 13.7741 182.491 13.6122C182.855 13.4503 183.267 13.3693 183.727 13.3693C184.375 13.3693 184.883 13.5114 185.252 13.7955C185.625 14.0795 185.889 14.4545 186.045 14.9205Z" fill="#686869"/>
</svg>
